<svg width="62" height="62" viewBox="0 0 62 62" fill="none" xmlns="http://www.w3.org/2000/svg">
<g clip-path="url(#clip0_648_3129)">
<path d="M22.0859 29.1372H25.6417V32.6929H22.0859V29.1372Z" fill="black"/>
<path d="M29.1953 29.1372H32.751V32.6929H29.1953V29.1372Z" fill="black"/>
<path d="M36.3047 29.1372H39.8604V32.6929H36.3047V29.1372Z" fill="black"/>
<path d="M29.1953 22.0259H32.751V25.5816H29.1953V22.0259Z" fill="black"/>
<path d="M22.0859 36.2485H25.6417V39.8043H22.0859V36.2485Z" fill="black"/>
<path d="M29.1953 36.2485H32.751V39.8043H29.1953V36.2485Z" fill="black"/>
<path d="M36.3047 36.2485H39.8604V39.8043H36.3047V36.2485Z" fill="black"/>
<path d="M7.74219 41.4282H11.2979V44.9839H7.74219V41.4282Z" fill="black"/>
<path d="M7.74219 34.3169H11.2979V37.8726H7.74219V34.3169Z" fill="black"/>
<path d="M7.74219 48.5396H11.2979V52.0953H7.74219V48.5396Z" fill="black"/>
<path d="M47.0943 25.3777V21.6442L32.7529 14.5326V11.0173H43.4201V0.350098H29.1972V14.5326L14.8557 21.6442V25.3777H0.632812V61.0345H61.3172V25.3777H47.0943ZM32.7529 3.90583H39.8643V7.46155H32.7529V3.90583ZM14.8557 57.4788H4.18854V28.9334H14.8557V57.4788ZM34.5307 57.4788H27.4193V46.9017H34.5307V57.4788ZM43.5386 25.3777V57.4788H38.0865V43.346H23.8636V57.4788H18.4114V25.3777V23.8498L30.975 17.6199L43.5386 23.8498V25.3777ZM57.7615 57.4788H47.0943V28.9334H57.7615V57.4788Z" fill="black"/>
<path d="M50.6484 41.4282H54.2042V44.9839H50.6484V41.4282Z" fill="black"/>
<path d="M50.6484 34.3169H54.2042V37.8726H50.6484V34.3169Z" fill="black"/>
<path d="M50.6484 48.5396H54.2042V52.0953H50.6484V48.5396Z" fill="black"/>
</g>
<defs>
<clipPath id="clip0_648_3129">
<rect width="60.6844" height="60.6844" fill="white" transform="translate(0.632812 0.350098)"/>
</clipPath>
</defs>
</svg>
