<svg width="62" height="62" viewBox="0 0 62 62" fill="none" xmlns="http://www.w3.org/2000/svg">
<g clip-path="url(#clip0_648_3119)">
<path d="M55.8304 7.45788C55.8304 3.53864 52.6419 0.350098 48.7225 0.350098H14.7283C9.82936 0.350098 5.84375 4.33571 5.84375 9.23456V46.427H17.2146V61.0345L25.507 56.9486L33.7994 61.0345V46.427H45.1703V19.3033H55.8304V7.45788ZM25.5069 46.7497C22.3889 46.7497 19.8523 44.2131 19.8523 41.0952C19.8523 37.9773 22.3889 35.4406 25.5069 35.4406C28.6249 35.4406 31.1616 37.9773 31.1616 41.0952C31.1616 44.2131 28.6249 46.7497 25.5069 46.7497ZM25.5069 52.9848L20.7702 55.3187V48.9906C22.1552 49.8245 23.7758 50.3053 25.5069 50.3053C27.2381 50.3053 28.8587 49.8245 30.2436 48.9906V55.3187L25.5069 52.9848ZM41.6146 42.8714H34.5438C34.6566 42.2963 34.7173 41.7029 34.7173 41.0953C34.7173 36.0168 30.5856 31.8851 25.5069 31.8851C20.4283 31.8851 16.2965 36.0168 16.2965 41.0953C16.2965 41.7029 16.3572 42.2964 16.47 42.8714H9.39948V9.23456C9.39948 6.29622 11.79 3.90571 14.7283 3.90571H42.5698C41.9635 4.95168 41.6145 6.16442 41.6145 7.45788V42.8714H41.6146ZM52.2747 15.7477H45.1703V7.45788C45.1703 5.49927 46.7638 3.90571 48.7226 3.90571C50.6812 3.90571 52.2748 5.49915 52.2748 7.45788V15.7477H52.2747Z" fill="black"/>
<path d="M14.2422 8.64111H36.7731V12.1967H14.2422V8.64111Z" fill="black"/>
<path d="M14.2422 15.7476H36.7731V19.3032H14.2422V15.7476Z" fill="black"/>
<path d="M20.1641 24.8086H30.8502V28.3642H20.1641V24.8086Z" fill="black"/>
</g>
<defs>
<clipPath id="clip0_648_3119">
<rect width="60.6844" height="60.6844" fill="white" transform="translate(0.492188 0.350098)"/>
</clipPath>
</defs>
</svg>
