<svg width="62" height="62" viewBox="0 0 62 62" fill="none" xmlns="http://www.w3.org/2000/svg">
<g clip-path="url(#clip0_648_3107)">
<path d="M7.71094 32.5889H47.061V14.5732H7.71094V32.5889ZM11.2667 18.129H43.5053V29.0332H11.2667V18.129Z" fill="black"/>
<path d="M7.71094 36.1445H25.6081V39.7003H7.71094V36.1445Z" fill="black"/>
<path d="M7.71094 43.2559H25.6081V46.8116H7.71094V43.2559Z" fill="black"/>
<path d="M29.1641 53.9232H47.0612V36.1445H29.1641V53.9232ZM32.7198 39.7003H43.5055V50.3674H32.7198V39.7003Z" fill="black"/>
<path d="M7.71094 50.3672H25.6081V53.9229H7.71094V50.3672Z" fill="black"/>
<path d="M7.71302 0.350098V7.46155H0.601562V55.7009C0.601562 58.6419 2.99421 61.0345 5.93515 61.0345H55.9499C55.9703 61.0345 55.9908 61.0344 56.0113 61.0342C58.9251 61.0024 61.286 58.6221 61.286 55.7009V0.350098H7.71302ZM5.93515 57.4788C4.95484 57.4788 4.15729 56.6812 4.15729 55.7009V11.0173H50.6188V55.7009C50.6188 56.3169 50.7219 56.9159 50.9202 57.4788H5.93515ZM57.7302 55.7009C57.7302 56.6697 56.9514 57.4599 55.987 57.4784C55.5018 57.4884 55.0557 57.3089 54.7129 56.9754C54.3657 56.6376 54.1745 56.185 54.1745 55.7009V7.46155H11.2687V3.90583H57.7302V55.7009Z" fill="black"/>
</g>
<defs>
<clipPath id="clip0_648_3107">
<rect width="60.6844" height="60.6844" fill="white" transform="translate(0.601562 0.350098)"/>
</clipPath>
</defs>
</svg>
