<svg width="62" height="62" viewBox="0 0 62 62" fill="none" xmlns="http://www.w3.org/2000/svg">
<g clip-path="url(#clip0_648_3092)">
<path d="M61.286 9.61085H54.1466V4.25635H39.749C36.0823 4.25635 32.8452 6.12971 30.9438 8.96927C29.0423 6.12971 25.8052 4.25635 22.1386 4.25635H7.74091V9.61085H0.601562V57.8014H61.286V9.61085ZM39.749 7.82602H50.577V47.0924H48.1797C42.4832 47.0924 37.0847 48.9493 32.7286 52.14C32.7286 49.3422 32.7286 15.222 32.7286 14.8464C32.7286 10.9753 35.8779 7.82602 39.749 7.82602ZM11.3106 7.82602H22.1386C26.0097 7.82602 29.1589 10.9753 29.1589 14.8464V52.14C24.8133 48.957 19.4173 47.0924 13.7078 47.0924H11.3106V7.82602ZM4.17123 13.1805H7.74091V50.6621H13.7078C18.1003 50.6621 22.3008 51.9085 25.9072 54.2317H4.17123V13.1805ZM57.7163 54.2317H35.9802C39.5868 51.9085 43.7871 50.6621 48.1796 50.6621H54.1466V13.1805H57.7163V54.2317Z" fill="black"/>
<path d="M39.8672 14.9653H47.0065V18.535H39.8672V14.9653Z" fill="black"/>
<path d="M36.2969 22.1045H47.0059V25.6742H36.2969V22.1045Z" fill="black"/>
<path d="M36.2969 29.2441H47.0059V32.8138H36.2969V29.2441Z" fill="black"/>
<path d="M36.2969 36.3833H47.0059V39.953H36.2969V36.3833Z" fill="black"/>
<path d="M14.8828 14.9653H22.0222V18.535H14.8828V14.9653Z" fill="black"/>
<path d="M14.8828 22.1045H25.5918V25.6742H14.8828V22.1045Z" fill="black"/>
<path d="M14.8828 29.2441H25.5918V32.8138H14.8828V29.2441Z" fill="black"/>
<path d="M14.8828 36.3833H25.5918V39.953H14.8828V36.3833Z" fill="black"/>
</g>
<defs>
<clipPath id="clip0_648_3092">
<rect width="60.6844" height="60.6844" fill="white" transform="translate(0.601562 0.686523)"/>
</clipPath>
</defs>
</svg>
