<svg width="36" height="36" viewBox="0 0 36 36" fill="none" xmlns="http://www.w3.org/2000/svg">
<path d="M17.7917 3.58586C19.2743 2.59745 21.2004 2.57696 22.7037 3.5336L28.9365 7.49991H31.4997C32.3281 7.49991 32.9997 8.17149 32.9997 8.99991V22.4999C32.9997 23.3283 32.3281 23.9999 31.4997 23.9999H29.2202C29.3094 25.4208 28.6399 26.8653 27.2932 27.6734L19.6532 32.2575C18.6887 32.8361 17.4913 32.8226 16.5471 32.2461C15.4966 33.1751 13.8796 33.2774 12.7066 32.3556L4.99542 26.2968C3.84581 25.3937 3.55509 23.8505 4.14868 22.6271C3.42372 22.0586 3 21.1881 3 20.2664V9C3 8.17158 3.67158 7.5 4.5 7.5H11.9204L17.7917 3.58586ZM6.25896 20.4678L7.297 19.5596C9.14232 17.9448 11.9406 18.1047 13.59 19.9191L17.6433 24.3777C18.9476 25.8125 19.1854 27.9203 18.2368 29.6085L25.7498 25.1009C26.1719 24.8477 26.3245 24.3414 26.1672 23.915L19.5266 14.6183C19.1535 14.096 18.4896 13.869 17.8749 14.0534L14.147 15.1718C12.5614 15.6474 10.8426 15.2141 9.67198 14.0435L9.23283 13.6044C8.38082 12.7524 8.16048 11.5398 8.51902 10.5H6V20.2664L6.25896 20.4678ZM21.0932 6.06459C20.592 5.74571 19.95 5.75253 19.4557 6.08201L11.3541 11.4831L11.7933 11.9222C12.1835 12.3124 12.7564 12.4568 13.285 12.2983L17.0128 11.1799C18.8569 10.6267 20.8488 11.3079 21.9678 12.8745L27.7716 20.9999H29.9997V10.4999H28.9365C28.3659 10.4999 27.8071 10.3372 27.3258 10.0309L21.0932 6.06459ZM9.27252 21.8172L6.84889 23.9379L14.56 29.9967L15.6159 28.1489C15.9384 27.5846 15.8607 26.8767 15.4234 26.3957L11.3702 21.9371C10.8204 21.3323 9.88763 21.279 9.27252 21.8172Z" fill="white"/>
</svg>
