<svg width="68" height="68" viewBox="0 0 68 68" fill="none" xmlns="http://www.w3.org/2000/svg">
<path d="M33.5373 1.96857C36.832 -0.227896 41.1123 -0.273429 44.453 1.85244L58.3037 10.6665H63.9997C65.8407 10.6665 67.333 12.1589 67.333 13.9998V43.9997C67.333 45.8407 65.8407 47.333 63.9997 47.333H58.934C59.1323 50.4907 57.6447 53.7007 54.652 55.4963L37.674 65.6833C35.5307 66.969 32.87 66.939 30.7717 65.658C28.4373 67.7223 24.844 67.9497 22.2371 65.9013L5.10126 52.4373C2.54656 50.4303 1.90053 47.001 3.21963 44.2823C1.60859 43.019 0.666992 41.0847 0.666992 39.0363V14C0.666992 12.1591 2.15939 10.6667 4.00033 10.6667H20.4901L33.5373 1.96857ZM7.90913 39.484L10.2159 37.4657C14.3166 33.8773 20.5351 34.2327 24.2004 38.2647L33.2077 48.1727C36.106 51.361 36.6347 56.045 34.5267 59.7967L51.222 49.7797C52.16 49.217 52.4993 48.092 52.1497 47.1443L37.3927 26.485C36.5637 25.3245 35.0883 24.8199 33.7223 25.2297L25.4382 27.715C21.9145 28.772 18.0949 27.809 15.4936 25.2078L14.5177 24.2319C12.6244 22.3386 12.1347 19.6439 12.9315 17.3333H7.33366V39.0363L7.90913 39.484ZM40.874 7.47687C39.7603 6.76824 38.3337 6.7834 37.2353 7.51557L19.2318 19.5179L20.2077 20.4938C21.0748 21.3609 22.348 21.6819 23.5225 21.3295L31.8067 18.8442C35.9047 17.6148 40.331 19.1286 42.8177 22.6101L55.715 40.6663H60.6663V17.3331H58.3037C57.0357 17.3331 55.794 16.9716 54.7243 16.2909L40.874 7.47687ZM14.6059 42.4827L9.22009 47.1953L26.356 60.6593L28.7023 56.553C29.419 55.299 29.2463 53.726 28.2747 52.657L19.2674 42.749C18.0457 41.405 15.9728 41.2867 14.6059 42.4827Z" fill="black"/>
</svg>
