<svg width="68" height="68" viewBox="0 0 68 68" fill="none" xmlns="http://www.w3.org/2000/svg">
<path d="M34.0003 0.666626C52.4003 0.666626 67.3337 15.6 67.3337 34C67.3337 52.4 52.4003 67.3333 34.0003 67.3333C15.6003 67.3333 0.666992 52.4 0.666992 34C0.666992 15.6 15.6003 0.666626 34.0003 0.666626ZM34.0003 60.6666C48.756 60.6666 60.667 48.7556 60.667 34C60.667 19.2444 48.756 7.33329 34.0003 7.33329C19.2448 7.33329 7.33366 19.2444 7.33366 34C7.33366 48.7556 19.2448 60.6666 34.0003 60.6666ZM34.0003 54C22.9337 54 14.0003 45.0666 14.0003 34C14.0003 22.9333 22.9337 14 34.0003 14C45.067 14 54.0003 22.9333 54.0003 34C54.0003 45.0666 45.067 54 34.0003 54ZM34.0003 27.3333C30.3337 27.3333 27.3337 30.3333 27.3337 34C27.3337 37.6666 30.3337 40.6666 34.0003 40.6666C37.667 40.6666 40.667 37.6666 40.667 34C40.667 30.3333 37.667 27.3333 34.0003 27.3333Z" fill="black"/>
</svg>
