<svg width="36" height="36" viewBox="0 0 36 36" fill="none" xmlns="http://www.w3.org/2000/svg">
<path d="M14.325 17.25C12.461 17.25 10.95 15.7389 10.95 13.875C10.95 12.011 12.461 10.5 14.325 10.5C16.1889 10.5 17.7 12.011 17.7 13.875C17.7 15.7389 16.1889 17.25 14.325 17.25ZM15 29.622V24.6C15 23.8674 15.2163 23.194 15.6062 22.5936C15.1631 22.5319 14.7102 22.5 14.25 22.5C11.898 22.5 9.74054 23.3328 8.05637 24.7196C9.67364 27.1082 12.1289 28.8829 15 29.622ZM6.67929 21.99C8.79648 20.4252 11.4152 19.5 14.25 19.5C15.8152 19.5 17.3146 19.782 18.7 20.2981C20.017 19.7832 21.5886 19.5 23.25 19.5C25.7396 19.5 28.0273 20.1358 29.559 21.2344C29.8464 20.2054 30 19.1206 30 18C30 11.3726 24.6275 6 18 6C11.3726 6 6 11.3726 6 18C6 19.3988 6.23934 20.7417 6.67929 21.99ZM28.3191 24.1288C27.7293 23.3289 25.7562 22.5 23.25 22.5C20.2409 22.5 18 23.695 18 24.6V30C22.3882 30 26.2265 27.6444 28.3191 24.1288ZM18 33C9.71572 33 3 26.2842 3 18C3 9.71572 9.71572 3 18 3C26.2842 3 33 9.71572 33 18C33 26.2842 26.2842 33 18 33ZM23.25 18.75C21.5931 18.75 20.25 17.4069 20.25 15.75C20.25 14.0931 21.5931 12.75 23.25 12.75C24.9069 12.75 26.25 14.0931 26.25 15.75C26.25 17.4069 24.9069 18.75 23.25 18.75Z" fill="white"/>
</svg>
