<svg width="68" height="68" viewBox="0 0 68 68" fill="none" xmlns="http://www.w3.org/2000/svg">
<path d="M34.0003 30.6666C43.205 30.6666 50.667 38.1286 50.667 47.3333V67.3333H44.0003V47.3333C44.0003 42.0076 39.8373 37.6543 34.588 37.3503L34.0003 37.3333C28.6747 37.3333 24.3215 41.4963 24.0173 46.7456L24.0003 47.3333V67.3333H17.3337V47.3333C17.3337 38.1286 24.7956 30.6666 34.0003 30.6666ZM12.3337 40.6666C13.2632 40.6666 14.1673 40.7753 15.034 40.9806C14.4737 42.6466 14.1294 44.4066 14.0302 46.231L14.0003 47.3333L14.0027 47.6186C13.6256 47.4853 13.2277 47.3956 12.8152 47.3563L12.3337 47.3333C9.73466 47.3333 7.59882 49.3163 7.35656 51.8516L7.33366 52.3333V67.3333H0.666992V52.3333C0.666992 45.89 5.89033 40.6666 12.3337 40.6666ZM55.667 40.6666C62.1103 40.6666 67.3337 45.89 67.3337 52.3333V67.3333H60.667V52.3333C60.667 49.7343 58.684 47.5986 56.1487 47.3563L55.667 47.3333C55.083 47.3333 54.5223 47.4333 54.0013 47.6173L54.0003 47.3333C54.0003 45.1143 53.639 42.98 52.972 40.9853C53.8333 40.7753 54.7373 40.6666 55.667 40.6666ZM12.3337 20.6666C16.936 20.6666 20.667 24.3976 20.667 29C20.667 33.6023 16.936 37.3333 12.3337 37.3333C7.73129 37.3333 4.00033 33.6023 4.00033 29C4.00033 24.3976 7.73129 20.6666 12.3337 20.6666ZM55.667 20.6666C60.2693 20.6666 64.0003 24.3976 64.0003 29C64.0003 33.6023 60.2693 37.3333 55.667 37.3333C51.0647 37.3333 47.3337 33.6023 47.3337 29C47.3337 24.3976 51.0647 20.6666 55.667 20.6666ZM12.3337 27.3333C11.4132 27.3333 10.667 28.0796 10.667 29C10.667 29.9203 11.4132 30.6666 12.3337 30.6666C13.2541 30.6666 14.0003 29.9203 14.0003 29C14.0003 28.0796 13.2541 27.3333 12.3337 27.3333ZM55.667 27.3333C54.7467 27.3333 54.0003 28.0796 54.0003 29C54.0003 29.9203 54.7467 30.6666 55.667 30.6666C56.5873 30.6666 57.3337 29.9203 57.3337 29C57.3337 28.0796 56.5873 27.3333 55.667 27.3333ZM34.0003 0.666626C41.364 0.666626 47.3337 6.63616 47.3337 14C47.3337 21.3638 41.364 27.3333 34.0003 27.3333C26.6365 27.3333 20.667 21.3638 20.667 14C20.667 6.63616 26.6365 0.666626 34.0003 0.666626ZM34.0003 7.33329C30.3183 7.33329 27.3337 10.3181 27.3337 14C27.3337 17.6819 30.3183 20.6666 34.0003 20.6666C37.6823 20.6666 40.667 17.6819 40.667 14C40.667 10.3181 37.6823 7.33329 34.0003 7.33329Z" fill="black"/>
</svg>
