<svg width="36" height="36" viewBox="0 0 36 36" fill="none" xmlns="http://www.w3.org/2000/svg">
<path d="M18.0078 33.0041C9.72355 33.0041 3.00781 26.2884 3.00781 18.0041C3.00781 9.71988 9.72355 3.00415 18.0078 3.00415C26.292 3.00415 33.0078 9.71988 33.0078 18.0041C33.0078 26.2884 26.292 33.0041 18.0078 33.0041ZM18.0078 30.0041C24.6353 30.0041 30.0078 24.6315 30.0078 18.0041C30.0078 11.3767 24.6353 6.00415 18.0078 6.00415C11.3804 6.00415 6.00781 11.3767 6.00781 18.0041C6.00781 24.6315 11.3804 30.0041 18.0078 30.0041ZM13.5078 12.0042H22.5078L26.2578 17.2541L18.0066 25.5041L9.75781 17.2541L13.5078 12.0042ZM15.0528 15.0041L13.6728 16.9391L18.0066 21.2741L22.3428 16.9391L20.9628 15.0041H15.0528Z" fill="white"/>
</svg>
