<svg width="48" height="48" viewBox="0 0 48 48" fill="none" xmlns="http://www.w3.org/2000/svg">
<path d="M0 8C0 3.58172 3.58172 0 8 0H40C44.4183 0 48 3.58172 48 8V40C48 44.4183 44.4183 48 40 48H8C3.58172 48 0 44.4183 0 40V8Z" fill="#FF6600"/>
<path d="M13.6734 15.5618C11.7925 17.8603 10.6641 20.7984 10.6641 24.0001C10.6641 27.2018 11.7926 30.14 13.6735 32.4385L18.9175 27.1945C18.3346 26.2695 17.9974 25.1742 17.9974 24.0001C17.9974 22.826 18.3346 21.7308 18.9174 20.8058L13.6734 15.5618Z" fill="#230C3D"/>
<path d="M15.559 13.6762L20.803 18.9202C21.728 18.3373 22.8233 18.0001 23.9974 18.0001C25.1715 18.0001 26.2668 18.3373 27.1918 18.9202L32.4358 13.6762C30.1373 11.7953 27.1991 10.6667 23.9974 10.6667C20.7957 10.6667 17.8575 11.7952 15.559 13.6762Z" fill="#230C3D"/>
<path d="M34.3214 15.5618L29.0774 20.8058C29.6602 21.7308 29.9974 22.8261 29.9974 24.0001C29.9974 25.1742 29.6602 26.2695 29.0773 27.1944L34.3213 32.4384C36.2022 30.1399 37.3307 27.2018 37.3307 24.0001C37.3307 20.7984 36.2023 17.8603 34.3214 15.5618Z" fill="#230C3D"/>
<path d="M32.4357 34.324L27.1917 29.08C26.2667 29.6629 25.1714 30.0001 23.9974 30.0001C22.8234 30.0001 21.7281 29.6629 20.8032 29.0801L15.5592 34.3241C17.8576 36.205 20.7957 37.3334 23.9974 37.3334C27.1991 37.3334 30.1372 36.2049 32.4357 34.324Z" fill="#230C3D"/>
</svg>
